# Blender 4.0.2
# www.blender.org
mtllib main.mtl
o sc0
v -15.000000 6.000000 0.000000
v 15.000000 6.000000 0.000000
v -15.000000 -6.000000 -0.000000
v 15.000000 -6.000000 -0.000000
vn -0.0000 -0.0000 1.0000
vt 1.000000 0.000000
vt 0.000000 1.000000
vt 0.000000 0.000000
vt 1.000000 1.000000
s 0
f 4/1/1 1/2/1 3/3/1
f 4/1/1 2/4/1 1/2/1
o sc1
v -15.000000 -6.000000 -0.000000
v 15.000000 -6.000000 -0.000000
v -15.000000 -7.000000 -0.000000
v 15.000000 -7.000000 -0.000000
vn -0.0000 -0.0000 1.0000
vt 0.000000 0.000000
vt 1.000000 0.000000
s 0
f 5/5/2 8/6/2 6/6/2
f 5/5/2 7/5/2 8/6/2
o d
v -1.000000 0.000000 -8.951468
v 1.000000 0.000000 -8.951468
v -1.000000 0.000000 -10.951468
v 1.000000 0.000000 -10.951468
vn -0.0000 1.0000 -0.0000
vt 1.000000 0.000000
vt 0.000000 1.000000
vt 0.000000 0.000000
vt 1.000000 1.000000
s 0
f 10/7/3 11/8/3 9/9/3
f 10/7/3 12/10/3 11/8/3
