# Blender 4.0.2
# www.blender.org
mtllib main.mtl
o sc0
v -4.500000 3.125000 0.000000
v 4.500000 3.125000 0.000000
v -4.500000 -2.875000 -0.000000
v 4.500000 -2.875000 -0.000000
vn -0.0000 -0.0000 1.0000
vt 1.000000 0.000000
vt 0.000000 1.000000
vt 0.000000 0.000000
vt 1.000000 1.000000
s 0
usemtl temp
f 4/1/1 1/2/1 3/3/1
f 4/1/1 2/4/1 1/2/1
o sc1
v -4.500000 -2.875000 -0.000000
v 4.500000 -2.875000 -0.000000
v -4.500000 -3.275000 -0.000000
v 4.500000 -3.275000 -0.000000
vn -0.0000 -0.0000 1.0000
vt 0.000000 1.000000
vt 1.000000 0.000000
vt 1.000000 1.000000
vt 0.000000 0.000000
s 0
usemtl temp
f 5/5/2 8/6/2 6/7/2
f 5/5/2 7/8/2 8/6/2
o d
v -4.700000 -3.475000 0.050000
v 4.700000 -3.475000 0.050000
v -4.700000 3.325000 0.050000
v 4.700000 3.325000 0.050000
v 4.500000 3.125000 0.050000
v 4.500000 -3.275000 0.050000
v -4.500000 -3.275000 0.050000
v -4.500000 3.125000 0.050000
v -4.500000 -3.275000 -0.000000
v 4.500000 -3.275000 -0.000000
v -4.500000 3.125000 0.000000
v 4.500000 3.125000 0.000000
v -4.700000 3.325000 -0.500000
v 4.700000 3.325000 -0.500000
v -4.700000 -3.475000 -0.500000
v 4.700000 -3.475000 -0.500000
vn -0.0000 -0.0000 1.0000
vn -1.0000 -0.0000 -0.0000
vn -0.0000 -1.0000 -0.0000
vn -0.0000 1.0000 -0.0000
vn -0.0000 -0.0000 -1.0000
vn 1.0000 -0.0000 -0.0000
vt 1.000000 0.000000
vt 0.983871 0.962963
vt 0.983871 0.037037
vt 0.000000 0.000000
vt 0.016129 0.037037
vt 0.016129 0.962963
vt 0.000000 1.000000
vt 1.000000 1.000000
s 0
usemtl c
f 10/9/3 13/10/3 14/11/3
f 9/12/3 14/11/3 15/13/3
f 14/11/4 20/10/4 18/11/4
f 19/14/5 13/10/5 16/14/5
f 18/11/6 15/13/6 14/11/6
f 24/9/7 21/15/7 22/16/7
f 17/13/8 16/14/8 15/13/8
f 16/14/3 12/16/3 11/15/3
f 9/12/3 16/14/3 11/15/3
f 10/9/8 22/16/8 12/16/8
f 9/12/5 24/9/5 10/9/5
f 21/15/4 9/12/4 11/15/4
f 22/16/6 11/15/6 12/16/6
f 10/9/3 12/16/3 13/10/3
f 9/12/3 10/9/3 14/11/3
f 14/11/4 13/10/4 20/10/4
f 19/14/5 20/10/5 13/10/5
f 18/11/6 17/13/6 15/13/6
f 24/9/7 23/12/7 21/15/7
f 17/13/8 19/14/8 16/14/8
f 16/14/3 13/10/3 12/16/3
f 9/12/3 15/13/3 16/14/3
f 10/9/8 24/9/8 22/16/8
f 9/12/5 23/12/5 24/9/5
f 21/15/4 23/12/4 9/12/4
f 22/16/6 21/15/6 11/15/6
