<?xml version="1.0" encoding="UTF-8" standalone="no"?>
<svg
   version="1.1"
   width="2500"
   height="2500"
   id="svg7"
   sodipodi:docname="logo.svg"
   inkscape:version="1.4 (86a8ad7, 2024-10-11)"
   xmlns:inkscape="http://www.inkscape.org/namespaces/inkscape"
   xmlns:sodipodi="http://sodipodi.sourceforge.net/DTD/sodipodi-0.dtd"
   xmlns="http://www.w3.org/2000/svg"
   xmlns:svg="http://www.w3.org/2000/svg">
  <defs
     id="defs7" />
  <sodipodi:namedview
     id="namedview7"
     pagecolor="#ffffff"
     bordercolor="#cccccc"
     borderopacity="1"
     inkscape:showpageshadow="0"
     inkscape:pageopacity="1"
     inkscape:pagecheckerboard="0"
     inkscape:deskcolor="#d1d1d1"
     inkscape:zoom="0.3444"
     inkscape:cx="892.85714"
     inkscape:cy="1251.4518"
     inkscape:window-width="1161"
     inkscape:window-height="754"
     inkscape:window-x="413"
     inkscape:window-y="0"
     inkscape:window-maximized="0"
     inkscape:current-layer="svg7" />
  <path
     d="m 358.57241,505.71001 c 120.96936,0 241.93871,0 366.5738,0 -3.61374,23.48925 -3.61374,23.48925 -6.01771,34.93591 -0.40497,1.96053 -0.40497,1.96053 -0.81811,3.96067 -0.88568,4.28214 -1.77858,8.56273 -2.67146,12.84337 -0.63651,3.07171 -1.27251,6.14352 -1.90802,9.21545 -1.35232,6.53281 -2.70759,13.065 -4.06527,19.59669 -3.23949,15.58667 -6.46318,31.1766 -9.68691,46.76654 -0.72588,3.51025 -1.45194,7.02046 -2.17817,10.53063 -6.30142,30.46006 -12.51086,60.93785 -18.66127,91.4287 -8.39165,41.59818 -16.93725,83.16237 -25.57724,124.70963 -8.6882,41.7822 -17.30112,83.5785 -25.77841,125.4039 -0.76043,3.7511 -1.52158,7.5022 -2.28286,11.2531 -1.19101,5.8698 -2.37973,11.7399 -3.56658,17.6104 -0.6304,3.117 -1.26224,6.2338 -1.89414,9.3505 -2.85257,14.1407 -5.51075,28.2995 -8.16987,42.4816 219.61389,-0.7789 219.61389,-0.7789 443.66441,-1.5733 5.563,-25.9605 11.0826,-51.8669 16.0708,-77.9326 0.5908,-3.0674 1.1823,-6.1347 1.7741,-9.2019 1.2453,-6.4559 2.4882,-12.9123 3.7292,-19.3691 3.3182,-17.2596 6.6559,-34.5153 9.9959,-51.7707 0.3346,-1.729 0.6693,-3.4581 1.0141,-5.2395 5.9958,-30.9688 12.1272,-61.90857 18.3508,-92.83226 9.8461,-48.94009 19.5011,-97.91675 29.1056,-146.90485 0.3481,-1.77505 0.6961,-3.55009 1.0548,-5.37892 2.0351,-10.37886 4.0694,-20.75789 6.1029,-31.13704 0.9829,-5.01563 1.9665,-10.03113 2.9501,-15.04661 2.9798,-15.20013 5.9506,-30.40185 8.8915,-45.60953 1.3184,-6.8156 2.641,-13.63041 3.9637,-20.44516 0.6252,-3.2273 1.248,-6.45504 1.8685,-9.6832 0.8502,-4.42215 1.7075,-8.84283 2.5665,-13.26327 0.3765,-1.97467 0.3765,-1.97467 0.7605,-3.98924 1.7513,-8.95753 1.7513,-8.95753 3.5037,-10.70991 4.694,-0.15418 9.3516,-0.2044 14.0461,-0.1892 2.2377,-0.002 2.2377,-0.002 4.5207,-0.004 5.0393,-0.002 10.0785,0.007 15.1177,0.0146 3.5963,4.4e-4 7.1926,1.9e-4 10.7888,-7.1e-4 9.7968,-4.5e-4 19.5937,0.009 29.3905,0.0198 10.2257,0.01 20.4515,0.011 30.6772,0.0127 17.1743,0.004 34.3486,0.0142 51.5228,0.0282 17.6927,0.0144 35.3855,0.0255 53.0781,0.0323 1.6348,6.2e-4 1.6348,6.2e-4 3.3026,0.001 5.4672,0.002 10.9344,0.004 16.4016,0.006 45.3849,0.0163 90.7697,0.0441 136.1544,0.0792 -0.8624,7.0069 -1.7277,13.94722 -3.0604,20.8828 -0.2931,1.52902 -0.5861,3.05805 -0.8881,4.63341 -0.4792,2.45819 -0.4792,2.45819 -0.9679,4.96604 -0.3397,1.75744 -0.6794,3.51487 -1.0294,5.32556 -3.1066,15.94983 -6.4054,31.85838 -9.715,47.76697 -3.5217,16.94612 -6.7836,33.92315 -9.868,50.95509 -2.3008,12.58797 -4.9355,25.07624 -7.7109,37.56701 -3.5852,16.23197 -6.6622,32.55467 -9.7542,48.88646 -1.9037,10.02188 -3.8411,20.03727 -5.7776,30.0528 -0.3538,1.83748 -0.7076,3.67486 -1.0721,5.56793 -2.3286,12.05196 -4.7151,24.09148 -7.1261,36.12714 -0.7075,3.53472 -1.4149,7.06944 -2.1224,10.60416 -0.371,1.85334 -0.742,3.70667 -1.1242,5.61615 -1.9237,9.61299 -3.8448,19.22653 -5.766,28.84007 -0.4131,2.06645 -0.826,4.1329 -1.239,6.19935 -0.8669,4.33755 -1.7338,8.67506 -2.6007,13.01276 -1.4294,7.1523 -2.8589,14.3046 -4.2883,21.4568 -0.2499,1.2501 -0.4998,2.5001 -0.7572,3.788 -0.5144,2.5736 -1.0287,5.1472 -1.5431,7.7208 -0.7927,3.9662 -1.5853,7.9323 -2.378,11.8984 -16.759,83.8531 -33.5194,167.7059 -50.2832,251.558 -0.4946,2.4736 -0.4946,2.4736 -0.999,4.997 -7.1517,35.7726 -14.3036,71.5453 -21.4558,107.3179 -3.4976,17.4937 -6.9951,34.9875 -10.4925,52.4812 -0.3481,1.7406 -0.696,3.4811 -1.0546,5.2744 -11.3086,56.5633 -22.6143,113.1271 -33.9184,169.6912 -11.6306,58.1975 -23.2641,116.3945 -34.9015,174.5907 -1.6412,8.2073 -3.2823,16.4148 -4.9235,24.6222 -0.323,1.6152 -0.646,3.2304 -0.9788,4.8945 -5.2052,26.0318 -10.4073,52.0641 -15.6082,78.0967 -5.2177,26.1164 -10.4387,52.2322 -15.6631,78.3472 -3.1066,15.5294 -6.2107,31.0593 -9.3112,46.5899 -2.0674,10.3552 -4.1381,20.7096 -6.2116,31.0635 -1.1835,5.9103 -2.3656,11.8208 -3.5436,17.7322 -1.2651,6.3481 -2.5371,12.6947 -3.81,19.0412 -0.3697,1.861 -0.7394,3.7219 -1.1203,5.6392 -0.5064,2.5157 -0.5064,2.5157 -1.0229,5.0821 -0.2905,1.4533 -0.581,2.9066 -0.8803,4.404 -0.8091,3.4571 -0.8091,3.4571 -2.3824,6.6036 -120.9694,0 -241.93873,0 -366.57378,0 28.97164,-144.8582 28.97164,-144.8582 41.60352,-206.7468 1.89075,-9.267 3.77831,-18.5347 5.66626,-27.8022 6.5896,-32.3428 13.1876,-64.6837 19.78847,-97.0241 4.067,-19.9262 8.13236,-39.8528 12.19563,-59.7798 0.3566,-1.7488 0.71319,-3.4975 1.08059,-5.2992 10.18064,-49.9311 20.28918,-99.8762 30.28257,-149.8451 0.88362,-4.418 1.76758,-8.8357 2.65153,-13.2535 1.35797,-6.7882 2.71396,-13.577 4.06807,-20.3659 0.49251,-2.4687 0.98545,-4.9373 1.47884,-7.4058 0.66632,-3.3347 1.33066,-6.6697 1.99435,-10.0048 0.37064,-1.8598 0.7414,-3.7194 1.12338,-5.6354 0.83134,-3.681 0.83134,-3.681 0.78246,-5.696 -146.40924,0 -292.8185,0 -443.66441,0 -12.00278,60.8712 -23.9888,121.7358 -35.80437,182.6419 -4.83275,24.9031 -9.70893,49.7972 -14.63885,74.6813 -0.2719,1.3724 -0.5438,2.7449 -0.82394,4.159 -2.23473,11.2786 -4.47099,22.557 -6.70748,33.8353 -6.63697,33.4729 -13.23274,66.9529 -19.69367,100.4602 -0.28558,1.4807 -0.57115,2.9614 -0.86538,4.487 -2.48884,12.908 -4.97574,25.8163 -7.44758,38.7275 -10.85495,56.6934 -22.26647,113.2594 -33.58787,169.8664 -120.96934,0 -241.9387,0 -366.573783,0 1.975536,-12.8411 4.023528,-25.5223 6.587638,-38.2363 0.332732,-1.6687 0.665465,-3.3375 1.00827,-5.0569 1.104626,-5.5344 2.215679,-11.0676 3.326766,-16.6008 0.799754,-4 1.599101,-8.0001 2.398096,-12.0002 1.9461,-9.7394 3.897022,-19.4778 5.849551,-29.2158 2.307454,-11.5094 4.609888,-23.0197 6.912168,-34.53 4.148427,-20.7395 8.301113,-41.4781 12.456288,-62.2163 3.952356,-19.7258 7.902186,-39.4521 11.848756,-59.1792 0.23926,-1.1959 0.47853,-2.3919 0.72504,-3.6241 0.9643,-4.8199 1.92859,-9.64 2.89287,-14.46 18.58191,-92.8807 37.2129,-185.7511 55.98655,-278.5933 9.49884,-46.976 18.93578,-93.9629 28.20729,-140.9844 3.16507,-16.0516 6.3432,-32.1006 9.51997,-48.1498 0.72683,-3.6721 1.45357,-7.3442 2.18021,-11.0162 7.74181,-39.122 15.53596,-78.2334 23.35778,-117.3394 0.32213,-1.6109 0.64426,-3.2216 0.97616,-4.8812 7.41391,-37.0695 14.85898,-74.1327 22.35876,-111.1849 0.3226,-1.5939 0.64521,-3.1879 0.97759,-4.8301 2.6123,-12.9057 5.22511,-25.8115 7.83862,-38.7171 10.9099,-53.8764 21.64625,-107.7857 32.29804,-161.71385 12.36945,-62.62132 24.92865,-125.20289 37.59536,-187.76477 0.33124,-1.63622 0.66249,-3.27243 1.00378,-4.95823 1.52858,-7.54991 3.05792,-15.09964 4.58948,-22.64893 5.53695,-27.32072 10.98749,-54.65744 16.45452,-81.99262 z"
     fill="#3398fd"
     id="path1"
     style="stroke-width:1.57328" />
  <path
     d="m 1543.2504,505.51202 c 1.3237,-0.004 2.6475,-0.008 4.0113,-0.0124 1.4627,0.003 2.9254,0.007 4.4324,0.011 2.3219,-0.003 2.3219,-0.003 4.6905,-0.008 5.2215,-0.007 10.443,-10e-4 15.6646,0.003 3.7317,-0.002 7.4632,-0.004 11.1949,-0.009 9.1139,-0.007 18.228,-0.005 27.3421,-9.2e-4 7.4273,0.003 14.8545,0.004 22.2816,0.002 1.5863,-3.6e-4 1.5863,-3.6e-4 3.2047,-7.4e-4 2.1489,-4.9e-4 4.2978,-10e-4 6.4467,-10e-4 20.1892,-0.004 40.3783,6.9e-4 60.5675,0.009 17.2426,0.007 34.4852,0.005 51.7277,-10e-4 20.0588,-0.009 40.1174,-0.0117 60.1762,-0.007 2.1524,5e-4 4.3049,9.9e-4 6.4575,10e-4 1.0587,2.5e-4 2.1175,4.9e-4 3.2083,7.4e-4 7.3804,0.001 14.7609,-9.9e-4 22.1414,-0.004 10.0103,-0.004 20.0207,-0.001 30.0311,0.008 3.6412,0.002 7.2824,10e-4 10.9235,-0.002 34.1925,-0.0299 68.3522,0.73248 102.4078,3.94526 2.2812,0.21028 4.5625,0.4205 6.8438,0.63069 119.7073,11.1649 252.5665,39.67262 341.4199,126.93773 2.6071,2.54907 5.2544,5.0519 7.9055,7.55527 60.7823,58.14255 93.094,143.61786 95.5863,226.95075 0.1934,9.4975 0.2013,18.9928 0.1685,28.492 0,1.6858 0,3.3717 -0.011,5.1087 -0.072,28.648 -1.378,56.7444 -5.2044,85.158 -0.219,1.6638 -0.438,3.3274 -0.6637,5.0416 -6.8115,49.8647 -21.2433,98.5429 -41.8148,144.4199 -0.4857,1.103 -0.9714,2.2059 -1.4718,3.3424 -20.4051,46.1702 -49.1251,86.0563 -81.9119,124.0931 -1.2452,1.4603 -2.4905,2.9204 -3.7735,4.4249 -1.6852,1.9468 -1.6852,1.9468 -3.4046,3.9331 -0.9755,1.1296 -1.951,2.2592 -2.956,3.4231 -2.4522,2.3784 -2.4522,2.3784 -5.5988,2.3784 -0.5191,1.5574 -1.0382,3.1151 -1.5732,4.7199 -2.4643,2.4275 -2.4643,2.4275 -5.6048,5.0147 -4.558,3.8549 -8.8323,7.8017 -12.9796,12.0947 -56.158,56.7011 -134.6834,94.2726 -207.9676,122.9123 5.8394,15.7788 11.8959,31.4371 18.2893,47.0017 1.7776,4.3455 3.5507,8.6929 5.3221,13.041 0.4789,1.1753 0.9577,2.3506 1.4511,3.5616 8.5901,21.1232 17.0044,42.318 25.4521,63.4985 9.1955,23.0439 9.1955,23.0439 18.7096,45.9576 7.8985,18.662 15.6772,37.3639 23.2564,56.158 1.6881,4.1863 3.3791,8.3713 5.0707,12.5562 4.9362,12.2147 9.8655,24.4321 14.7951,36.6494 3.8156,9.4557 7.6324,18.9107 11.4508,28.3652 0.9437,2.3362 0.9437,2.3362 1.9062,4.7197 10.27,25.4214 20.6655,50.7887 31.1313,76.1299 11.5596,28.0036 22.8934,56.1003 34.2716,84.1779 6.5595,16.1863 13.1254,32.37 19.7129,48.5449 1.0398,2.5552 1.0398,2.5552 2.1007,5.162 3.0666,7.5268 6.1476,15.0468 9.2749,22.5486 0.5262,1.265 1.0525,2.53 1.5948,3.8333 0.9536,2.2873 1.9119,4.5727 2.8761,6.8554 3.0328,7.2721 3.0328,7.2721 3.0328,10.7657 -132.9104,0 -265.821,0 -402.7592,0 -36.9147,-102.8341 -36.9147,-102.8341 -47.3788,-133.3135 -7.395,-21.5131 -14.9904,-42.9548 -22.5813,-64.3995 -3.5648,-10.0726 -7.119,-20.1489 -10.6739,-30.2249 -1.57,-4.4494 -3.1404,-8.8986 -4.7108,-13.3477 -3.163,-8.9606 -6.325,-17.9214 -9.4855,-26.8828 -8.3196,-23.5895 -16.6515,-47.1744 -25.0243,-70.7451 -4.0224,-11.3238 -8.0371,-22.6501 -12.0303,-33.9842 -0.3751,-1.0645 -0.7501,-2.129 -1.1365,-3.2256 -0.7669,-2.1767 -1.5338,-4.3535 -2.3007,-6.5303 -8.7081,-24.7143 -17.5022,-49.3974 -26.3306,-74.0692 -0.4784,-1.3372 -0.9568,-2.6745 -1.4496,-4.0523 -0.8748,-2.4454 -1.7502,-4.8907 -2.6261,-7.3358 -11.4771,-32.0792 -21.9788,-64.2416 -32.5046,-96.6959 -49.8414,-0.5193 -99.6829,-1.0384 -151.0346,-1.5733 1.7699,-15.9296 1.7699,-15.9296 3.1535,-22.8882 0.3109,-1.578 0.6216,-3.156 0.9417,-4.7819 0.3377,-1.6822 0.6752,-3.3645 1.0229,-5.0976 0.3584,-1.8108 0.7167,-3.6217 1.0861,-5.4873 1.1813,-5.9609 2.3711,-11.92 3.5611,-17.8792 0.8304,-4.1759 1.6589,-8.3523 2.4877,-12.5286 1.7379,-8.7529 3.4802,-17.5049 5.2254,-26.2563 2.2218,-11.1401 4.4364,-22.2815 6.6488,-33.4235 1.9209,-9.6745 3.845,-19.3485 5.7696,-29.0222 0.6086,-3.0595 1.2169,-6.119 1.8251,-9.1785 3.6873,-18.5381 7.3808,-37.0753 11.2094,-55.5847 0.3797,-1.8659 0.3797,-1.8659 0.7672,-3.7694 1.7435,-8.3381 1.7435,-8.3381 3.4997,-10.0943 2.6624,-0.1603 5.3313,-0.2102 7.9985,-0.2172 1.7346,-0.011 3.4693,-0.018 5.2566,-0.026 1.921,0 3.8421,0 5.8213,0 3.088,-0.012 6.176,-0.024 9.264,-0.038 3.3354,-0.012 6.6708,-0.021 10.0061,-0.029 6.9828,-0.017 13.9654,-0.048 20.9482,-0.084 19.8639,-0.097 39.7278,-0.1819 59.592,-0.2345 10.9589,-0.029 21.9178,-0.075 32.8766,-0.1385 5.7837,-0.033 11.5672,-0.057 17.351,-0.061 33.8616,-0.028 67.1318,-1.8047 100.3097,-9.1004 1.5425,-0.333 3.0851,-0.666 4.6745,-1.009 25.7507,-5.7208 49.8972,-13.6318 73.596,-25.2451 1.0694,-0.5237 2.1386,-1.0474 3.2403,-1.5871 13.4542,-6.6846 25.8437,-14.262 37.665,-23.5853 1.4926,-1.1722 2.9853,-2.3445 4.5231,-3.5522 36.6947,-29.4156 60.065,-68.9309 70.9942,-114.4437 0.2599,-1.0735 0.5197,-2.1472 0.7874,-3.2533 3.9864,-17.4665 4.4148,-35.0554 4.5224,-52.8931 0.012,-1.0836 0.025,-2.1674 0.037,-3.2841 0.3351,-37.828 -9.186,-73.6324 -36.0758,-101.5048 -2.3108,-2.68555 -2.3108,-2.68555 -2.3108,-5.83212 -0.868,-0.3854 -1.736,-0.77068 -2.6303,-1.16775 -4.4097,-2.38239 -8.0111,-5.33301 -11.9225,-8.46858 -51.8842,-39.91032 -123.7692,-42.58475 -186.3243,-42.43548 -3.7337,0 -7.4674,0 -11.2011,0.011 -7.9981,0 -15.9962,0.0143 -23.9942,0.0286 -11.5669,0.0198 -23.1338,0.0297 -34.7007,0.0363 -18.7771,0.011 -37.5542,0.0275 -56.3312,0.0495 -1.1207,0 -2.2413,0 -3.3958,0 -7.9603,0.011 -15.9205,0.0187 -23.8807,0.0286 -9.126,0.011 -18.252,0.022 -27.378,0.0319 -1.125,0 -2.25,0 -3.4091,0 -18.7353,0.022 -37.4708,0.0374 -56.2062,0.0473 -12.5748,0.011 -25.1495,0.0231 -37.7242,0.0451 -7.7955,0.0121 -15.591,0.0165 -23.3864,0.0198 -3.6267,0 -7.2533,0.011 -10.8799,0.0176 -4.9306,0.011 -9.8612,0.0132 -14.7917,0.0121 -1.4511,0.011 -2.9022,0.011 -4.3974,0.0165 -9.8682,-0.0165 -9.8682,-0.0165 -13.3738,-1.76901 7.1634,-39.85572 15.1241,-79.55645 23.0092,-119.2741 0.7056,-3.5553 1.4111,-7.11061 2.1167,-10.66591 3.802,-19.15477 7.6105,-38.30825 11.4243,-57.4607 1.9663,-9.87609 3.9278,-19.7531 5.8853,-29.63096 2.069,-10.43907 4.1511,-20.87537 6.2474,-31.309 0.7109,-3.54769 1.4171,-7.0963 2.1188,-10.64584 0.9371,-4.73547 1.8907,-9.46732 2.8496,-14.19844 0.3935,-2.01831 0.3935,-2.01831 0.7951,-4.0774 0.6276,-3.04776 1.3942,-6.06642 2.1916,-9.07422 3.5653,-1.78262 5.4827,-1.77038 9.4393,-1.77126 z"
     fill="#fe9934"
     id="path2"
     style="stroke-width:1.57328" />
  <path
     d="m 611.87019,1051.6376 c 1.82407,5.4722 1.11421,8.5885 0,14.1595 56.46673,-0.092 112.93337,-0.2099 169.4,-0.3603 6.66034,-0.018 13.32069,-0.035 19.98105,-0.053 1.326,0 2.652,-0.011 4.01819,-0.011 21.49477,-0.056 42.98954,-0.095 64.48435,-0.1277 22.04154,-0.034 44.08297,-0.086 66.12442,-0.1547 13.61022,-0.042 27.22032,-0.069 40.83059,-0.079 9.32215,-0.011 18.6442,-0.034 27.96621,-0.073 5.3853,-0.022 10.7704,-0.036 16.1558,-0.031 5.8278,0 11.6546,-0.023 17.4822,-0.057 2.5757,0.011 2.5757,0.011 5.2033,0.023 1.5518,-0.014 3.1035,-0.03 4.7023,-0.045 1.3465,0 2.693,-0.011 4.0804,-0.011 1.0678,-0.1968 2.1355,-0.3935 3.2356,-0.5963 1.0384,-1.5575 2.0767,-3.1151 3.1466,-4.7198 0.5191,1.5575 1.0383,3.1151 1.5733,4.7198 -7.1737,7.1736 -17.3855,6.6546 -26.9388,6.6655 -1.6564,-0.014 -3.3128,-0.029 -5.0194,-0.043 -1.7814,0 -3.563,0 -5.3984,-0.011 -5.9631,-0.013 -11.9258,-0.048 -17.8887,-0.084 -4.2771,-0.015 -8.55419,-0.026 -12.8313,-0.037 -10.40492,-0.03 -20.80972,-0.076 -31.21456,-0.129 -12.11137,-0.06 -24.22278,-0.1045 -36.33423,-0.1476 -21.59985,-0.078 -43.19963,-0.1705 -64.79938,-0.272 -20.97497,-0.099 -41.94994,-0.186 -62.92499,-0.2612 -1.29324,0 -2.58649,-0.011 -3.91892,-0.014 -1.29098,0 -2.58196,-0.011 -3.91207,-0.014 -23.86871,-0.086 -47.73738,-0.1816 -71.60604,-0.2824 -8.45037,-0.035 -16.90076,-0.068 -25.35114,-0.099 -10.28497,-0.039 -20.5699,-0.082 -30.85481,-0.1348 -5.25132,-0.026 -10.50258,-0.05 -15.75393,-0.067 -5.6793,-0.02 -11.35846,-0.05 -17.03771,-0.081 -2.51618,-0.011 -2.51618,-0.011 -5.08318,-0.011 -2.26338,-0.015 -2.26338,-0.015 -4.57247,-0.032 -1.31252,-0.011 -2.62502,-0.012 -3.9773,-0.018 -2.96698,-0.209 -2.96698,-0.209 -4.54026,-1.7823 -0.37571,-11.8349 -0.37571,-11.8349 1.57328,-15.7328 z"
     fill="#3e96f1"
     id="path3"
     style="stroke-width:1.57328" />
  <path
     d="m 890.34041,1885.4749 c 0.51918,0 1.03836,0 1.57328,0 0.0423,2.5893 0.0729,5.1787 0.0983,7.768 0.0183,1.442 0.0366,2.884 0.0554,4.3696 -0.15364,3.5952 -0.15364,3.5952 -1.72691,5.1685 0.0507,3.1943 0.10722,6.3895 0.25196,9.581 -0.25196,3.0053 -0.25196,3.0053 -3.39853,6.1517 -1.09733,2.0729 -2.15476,4.1679 -3.14655,6.2932 0.91204,-13.3661 3.52102,-26.256 6.29312,-39.332 z"
     fill="#4197eb"
     id="path4"
     style="stroke-width:1.57328" />
  <path
     d="m 987.88362,1405.6251 c 0.51925,0 1.0384,0 1.57328,0 0.61877,10.9763 -0.58057,19.6921 -4.71986,29.8922 -2.46142,-6.3247 -0.7272,-12.113 0.68834,-18.486 0.3483,-1.6457 0.3483,-1.6457 0.70364,-3.3246 0.57265,-2.6966 1.16192,-5.3894 1.7546,-8.0816 z"
     fill="#4396e9"
     id="path5"
     style="stroke-width:1.57328" />
  <path
     d="m 2271.6786,1298.6422 c 2.0767,0.5192 4.1534,1.0384 6.2931,1.5733 -5.4514,4.6726 -5.4514,4.6726 -11.0129,9.4397 0,-1.5576 0,-3.1151 0,-4.7199 1.0383,0 2.0767,0 3.1465,0 0.5192,-2.0767 1.0383,-4.1535 1.5733,-6.2931 z"
     fill="#f49d48"
     id="path6"
     style="stroke-width:1.57328" />
  <path
     d="m 2395.9675,711.80943 c 4.8642,3.97972 6.1505,8.21967 7.8664,14.15951 -3.0482,-0.88497 -3.0482,-0.88497 -6.2931,-3.14656 -1.18,-5.70313 -1.18,-5.70313 -1.5733,-11.01295 z"
     fill="#f09d49"
     id="path7"
     style="stroke-width:1.57328" />
</svg>
