<?xml version="1.0" encoding="UTF-8" standalone="no"?>
<!-- Created with Inkscape (http://www.inkscape.org/) -->

<svg
   width="210mm"
   height="297mm"
   viewBox="0 0 210 297"
   version="1.1"
   id="svg1"
   xmlns="http://www.w3.org/2000/svg"
   xmlns:svg="http://www.w3.org/2000/svg">
  <defs
     id="defs1" />
  <g
     id="layer1">
    <path
       style="fill:#000000;fill-opacity:1;stroke:none;stroke-width:1.45283"
       d="m 146.75451,83.261275 c 0,0 -24.77682,-6.07734 -34.12655,13.557114 -9.34975,19.634461 -20.569427,42.541321 -20.569427,42.541321 l 28.516697,10.75221 z"
       id="path1" />
    <path
       style="fill:#000000;fill-opacity:1;stroke:none;stroke-width:1.45283"
       d="m 91.621403,142.27392 25.244287,10.31506 18.20164,55.02385 -0.93497,56.56593 c 0,0 -14.95959,-15.89456 -14.95959,-30.38666 0,-14.49209 -1.86995,-24.77681 -1.86995,-24.77681 z"
       id="path2" />
    <path
       style="fill:#000000;fill-opacity:1;stroke:none;stroke-width:1.45283"
       d="m 98.135863,184.70597 c 1.869937,0 10.752197,19.16697 10.752197,19.16697 l -65.44819,27.58174 c 0,0 8.882252,-21.50441 21.971891,-28.9842 13.089641,-7.47979 32.724102,-17.76451 32.724102,-17.76451 z"
       id="path3" />
    <path
       style="fill:#000000;fill-opacity:1;stroke:none;stroke-width:1.45283"
       d="m 107.0181,97.28588 -52.358543,18.69948 c 0,0 9.817232,6.07733 21.504409,2.33744 11.687167,-3.7399 22.576307,-11.51703 22.576307,-11.51703 z"
       id="path5" />
    <path
       style="fill:#ffffff;fill-opacity:1;stroke:none;stroke-width:1.45283"
       d="m 112.72867,122.77143 27.39544,13.11921 -3.51225,6.52864 -24.62695,-16.63147 c 0,0 -0.61981,-0.90904 -0.24793,-1.94206 0.37188,-1.033 0.99169,-1.07432 0.99169,-1.07432 z"
       id="path7" />
    <circle
       style="fill:#000000;fill-opacity:1;stroke:none;stroke-width:1.45283"
       id="path6"
       cx="142.78088"
       cy="57.783222"
       r="16.595793" />
    <path
       style="fill:#000000;fill-opacity:1;stroke:none;stroke-width:1.45283"
       d="m 121.97769,112.71296 46.70575,36.37489 c 0,0 -10.06271,5.02404 -19.01544,-0.77943 -14.0181,-9.08702 -38.11681,-25.25889 -38.11681,-25.25889 z"
       id="path4" />
  </g>
</svg>
