# Blender 4.0.2
# www.blender.org
mtllib lineb.mtl
o lr
v 0.002587 0.002500 0.002500
v 0.002587 0.007500 0.002500
v 0.002587 0.002500 -0.002500
v 0.002587 0.007500 -0.002500
v 0.502587 0.002500 0.002500
v 0.502587 0.007500 0.002500
v 0.502587 0.002500 -0.002500
v 0.502587 0.007500 -0.002500
v 0.002587 -0.007500 0.002500
v 0.002587 -0.002500 0.002500
v 0.002587 -0.007500 -0.002500
v 0.002587 -0.002500 -0.002500
v 0.502587 -0.007500 0.002500
v 0.502587 -0.002500 0.002500
v 0.502587 -0.007500 -0.002500
v 0.502587 -0.002500 -0.002500
v 0.002587 -0.017500 0.002500
v 0.002587 -0.012500 0.002500
v 0.002587 -0.017500 -0.002500
v 0.002587 -0.012500 -0.002500
v 0.502587 -0.017500 0.002500
v 0.502587 -0.012500 0.002500
v 0.502587 -0.017500 -0.002500
v 0.502587 -0.012500 -0.002500
v 0.002587 0.012500 0.002415
v 0.002587 0.017500 0.002415
v 0.002587 0.012500 -0.002585
v 0.002587 0.017500 -0.002585
v 0.502587 0.012500 0.002415
v 0.502587 0.017500 0.002415
v 0.502587 0.012500 -0.002585
v 0.502587 0.017500 -0.002585
v 0.000000 -0.018750 0.005000
v 0.000000 0.018750 0.005000
v 0.000000 -0.018750 -0.005000
v 0.000000 0.018750 -0.005000
v 0.219862 -0.018750 0.005000
v 0.219862 0.018750 0.005000
v 0.219862 -0.018750 -0.005000
v 0.219862 0.018750 -0.005000
vn -0.0004 0.7071 0.7071
vn -0.0004 -0.7071 -0.7071
vn -0.0004 -0.7071 0.7071
vn -0.0004 0.7071 -0.7071
vn 0.0004 -0.7071 -0.7071
vn 0.0004 0.7071 -0.7071
vn 0.0004 -0.7071 0.7071
vn 0.0004 0.7071 0.7071
vt 0.625000 0.000000
vt 0.375000 0.250000
vt 0.375000 0.000000
vt 0.625000 0.250000
vt 0.375000 0.500000
vt 0.625000 0.500000
vt 0.375000 0.750000
vt 0.625000 0.750000
vt 0.375000 1.000000
vt 0.125000 0.750000
vt 0.125000 0.500000
vt 0.875000 0.500000
vt 0.625000 1.000000
vt 0.875000 0.750000
s 1
usemtl r
f 2/1/1 3/2/2 1/3/3
f 4/4/4 7/5/5 3/2/2
f 8/6/6 5/7/7 7/5/5
f 6/8/8 1/9/3 5/7/7
f 7/5/5 1/10/3 3/11/2
f 4/12/4 6/8/8 8/6/6
f 10/1/1 11/2/2 9/3/3
f 12/4/4 15/5/5 11/2/2
f 16/6/6 13/7/7 15/5/5
f 14/8/8 9/9/3 13/7/7
f 15/5/5 9/10/3 11/11/2
f 12/12/4 14/8/8 16/6/6
f 18/1/1 19/2/2 17/3/3
f 20/4/4 23/5/5 19/2/2
f 24/6/6 21/7/7 23/5/5
f 22/8/8 17/9/3 21/7/7
f 23/5/5 17/10/3 19/11/2
f 20/12/4 22/8/8 24/6/6
f 26/1/1 27/2/2 25/3/3
f 28/4/4 31/5/5 27/2/2
f 32/6/6 29/7/7 31/5/5
f 30/8/8 25/9/3 29/7/7
f 31/5/5 25/10/3 27/11/2
f 28/12/4 30/8/8 32/6/6
f 2/1/1 4/4/4 3/2/2
f 4/4/4 8/6/6 7/5/5
f 8/6/6 6/8/8 5/7/7
f 6/8/8 2/13/1 1/9/3
f 7/5/5 5/7/7 1/10/3
f 4/12/4 2/14/1 6/8/8
f 10/1/1 12/4/4 11/2/2
f 12/4/4 16/6/6 15/5/5
f 16/6/6 14/8/8 13/7/7
f 14/8/8 10/13/1 9/9/3
f 15/5/5 13/7/7 9/10/3
f 12/12/4 10/14/1 14/8/8
f 18/1/1 20/4/4 19/2/2
f 20/4/4 24/6/6 23/5/5
f 24/6/6 22/8/8 21/7/7
f 22/8/8 18/13/1 17/9/3
f 23/5/5 21/7/7 17/10/3
f 20/12/4 18/14/1 22/8/8
f 26/1/1 28/4/4 27/2/2
f 28/4/4 32/6/6 31/5/5
f 32/6/6 30/8/8 29/7/7
f 30/8/8 26/13/1 25/9/3
f 31/5/5 29/7/7 25/10/3
f 28/12/4 26/14/1 30/8/8
usemtl b
f 34/1/1 35/2/2 33/3/3
f 36/4/4 39/5/5 35/2/2
f 40/6/6 37/7/7 39/5/5
f 38/8/8 33/9/3 37/7/7
f 39/5/5 33/10/3 35/11/2
f 36/12/4 38/8/8 40/6/6
f 34/1/1 36/4/4 35/2/2
f 36/4/4 40/6/6 39/5/5
f 40/6/6 38/8/8 37/7/7
f 38/8/8 34/13/1 33/9/3
f 39/5/5 37/7/7 33/10/3
f 36/12/4 34/14/1 38/8/8
o ly
v 0.002587 0.002500 0.002500
v 0.002587 0.007500 0.002500
v 0.002587 0.002500 -0.002500
v 0.002587 0.007500 -0.002500
v 0.502587 0.002500 0.002500
v 0.502587 0.007500 0.002500
v 0.502587 0.002500 -0.002500
v 0.502587 0.007500 -0.002500
v 0.002587 -0.007500 0.002500
v 0.002587 -0.002500 0.002500
v 0.002587 -0.007500 -0.002500
v 0.002587 -0.002500 -0.002500
v 0.502587 -0.007500 0.002500
v 0.502587 -0.002500 0.002500
v 0.502587 -0.007500 -0.002500
v 0.502587 -0.002500 -0.002500
v 0.002587 -0.017500 0.002500
v 0.002587 -0.012500 0.002500
v 0.002587 -0.017500 -0.002500
v 0.002587 -0.012500 -0.002500
v 0.502587 -0.017500 0.002500
v 0.502587 -0.012500 0.002500
v 0.502587 -0.017500 -0.002500
v 0.502587 -0.012500 -0.002500
v 0.002587 0.012500 0.002415
v 0.002587 0.017500 0.002415
v 0.002587 0.012500 -0.002585
v 0.002587 0.017500 -0.002585
v 0.502587 0.012500 0.002415
v 0.502587 0.017500 0.002415
v 0.502587 0.012500 -0.002585
v 0.502587 0.017500 -0.002585
v 0.000000 -0.018750 0.005000
v 0.000000 0.018750 0.005000
v 0.000000 -0.018750 -0.005000
v 0.000000 0.018750 -0.005000
v 0.219862 -0.018750 0.005000
v 0.219862 0.018750 0.005000
v 0.219862 -0.018750 -0.005000
v 0.219862 0.018750 -0.005000
vn -0.0004 0.7071 0.7071
vn -0.0004 -0.7071 -0.7071
vn -0.0004 -0.7071 0.7071
vn -0.0004 0.7071 -0.7071
vn 0.0004 -0.7071 -0.7071
vn 0.0004 0.7071 -0.7071
vn 0.0004 -0.7071 0.7071
vn 0.0004 0.7071 0.7071
vt 0.625000 0.000000
vt 0.375000 0.250000
vt 0.375000 0.000000
vt 0.625000 0.250000
vt 0.375000 0.500000
vt 0.625000 0.500000
vt 0.375000 0.750000
vt 0.625000 0.750000
vt 0.375000 1.000000
vt 0.125000 0.750000
vt 0.125000 0.500000
vt 0.875000 0.500000
vt 0.625000 1.000000
vt 0.875000 0.750000
s 1
usemtl y
f 44/18/12 47/19/13 43/16/10
f 48/20/14 45/21/15 47/19/13
f 46/22/16 41/23/11 45/21/15
f 47/19/13 41/24/11 43/25/10
f 44/26/12 46/22/16 48/20/14
f 52/18/12 55/19/13 51/16/10
f 56/20/14 53/21/15 55/19/13
f 54/22/16 49/23/11 53/21/15
f 55/19/13 49/24/11 51/25/10
f 52/26/12 54/22/16 56/20/14
f 60/18/12 63/19/13 59/16/10
f 64/20/14 61/21/15 63/19/13
f 62/22/16 57/23/11 61/21/15
f 63/19/13 57/24/11 59/25/10
f 60/26/12 62/22/16 64/20/14
f 68/18/12 71/19/13 67/16/10
f 72/20/14 69/21/15 71/19/13
f 70/22/16 65/23/11 69/21/15
f 71/19/13 65/24/11 67/25/10
f 68/26/12 70/22/16 72/20/14
f 44/18/12 48/20/14 47/19/13
f 48/20/14 46/22/16 45/21/15
f 46/22/16 42/27/9 41/23/11
f 47/19/13 45/21/15 41/24/11
f 44/26/12 42/28/9 46/22/16
f 52/18/12 56/20/14 55/19/13
f 56/20/14 54/22/16 53/21/15
f 54/22/16 50/27/9 49/23/11
f 55/19/13 53/21/15 49/24/11
f 52/26/12 50/28/9 54/22/16
f 60/18/12 64/20/14 63/19/13
f 64/20/14 62/22/16 61/21/15
f 62/22/16 58/27/9 57/23/11
f 63/19/13 61/21/15 57/24/11
f 60/26/12 58/28/9 62/22/16
f 68/18/12 72/20/14 71/19/13
f 72/20/14 70/22/16 69/21/15
f 70/22/16 66/27/9 65/23/11
f 71/19/13 69/21/15 65/24/11
f 68/26/12 66/28/9 70/22/16
usemtl b
f 42/15/9 43/16/10 41/17/11
f 50/15/9 51/16/10 49/17/11
f 58/15/9 59/16/10 57/17/11
f 66/15/9 67/16/10 65/17/11
f 74/15/9 75/16/10 73/17/11
f 76/18/12 79/19/13 75/16/10
f 80/20/14 77/21/15 79/19/13
f 78/22/16 73/23/11 77/21/15
f 79/19/13 73/24/11 75/25/10
f 76/26/12 78/22/16 80/20/14
f 42/15/9 44/18/12 43/16/10
f 50/15/9 52/18/12 51/16/10
f 58/15/9 60/18/12 59/16/10
f 66/15/9 68/18/12 67/16/10
f 74/15/9 76/18/12 75/16/10
f 76/18/12 80/20/14 79/19/13
f 80/20/14 78/22/16 77/21/15
f 78/22/16 74/27/9 73/23/11
f 79/19/13 77/21/15 73/24/11
f 76/26/12 74/28/9 78/22/16
