# Blender 4.0.2
# www.blender.org
mtllib movea.mtl
o d1
v -0.400000 0.132224 0.150000
v -0.250000 0.200000 0.100000
v -0.400000 1.500000 0.150000
v -0.400000 0.132224 -0.150000
v -0.250000 0.200000 -0.100000
v -0.400000 1.500000 -0.150000
v 0.400000 0.132224 0.150000
v 0.250000 0.200000 0.100000
v 0.400000 1.500000 0.150000
v 0.400000 0.132224 -0.150000
v 0.250000 0.200000 -0.100000
v 0.400000 1.500000 -0.150000
v -0.400000 1.500000 -0.025000
v -0.400000 1.500000 0.025000
v -0.400000 0.200000 0.025000
v -0.400000 0.200000 -0.025000
v 0.400000 1.500000 0.025000
v 0.400000 1.500000 -0.025000
v 0.400000 0.200000 0.025000
v 0.400000 0.200000 -0.025000
v -0.250000 1.500000 0.100000
v -0.250000 1.500000 0.025000
v 0.250000 1.500000 0.100000
v 0.250000 1.500000 0.025000
v 0.250000 1.500000 -0.100000
v -0.250000 1.500000 -0.025000
v 0.250000 1.500000 -0.025000
v -0.250000 1.500000 -0.100000
v -0.250000 0.200000 -0.025000
v 0.250000 0.200000 -0.025000
v -0.250000 0.200000 0.025000
v 0.250000 0.200000 0.025000
v -0.400000 0.097373 0.150000
v -0.400000 0.097373 -0.150000
v 0.400000 0.097373 0.150000
v 0.400000 0.097373 -0.150000
v -0.400000 0.000000 0.150000
v -0.400000 0.000000 -0.150000
v 0.400000 0.000000 0.150000
v 0.400000 0.000000 -0.150000
vn -1.0000 -0.0000 -0.0000
vn -0.0000 -0.0000 -1.0000
vn 1.0000 -0.0000 -0.0000
vn -0.0000 -0.0000 1.0000
vn -0.0000 1.0000 -0.0000
vn -0.0000 -1.0000 -0.0000
vt 0.408333 0.145833
vt 0.375000 0.250000
vt 0.375000 0.000000
vt 0.625000 0.250000
vt 0.375000 0.500000
vt 0.408333 0.645833
vt 0.375000 0.750000
vt 0.625000 0.750000
vt 0.375000 1.000000
vt 0.875000 0.750000
vt 0.828125 0.708333
vt 0.625000 0.500000
vt 0.875000 0.500000
vt 0.671875 0.541667
vt 0.591667 0.383264
vt 0.375000 0.380165
vt 0.375000 0.383264
vt 0.375000 0.366736
vt 0.591667 0.369835
vt 0.591667 0.366736
vt 0.375000 0.883264
vt 0.591667 0.880165
vt 0.375000 0.880165
vt 0.591667 0.866736
vt 0.375000 0.869835
vt 0.591667 0.869835
vt 0.258264 0.500000
vt 0.255165 0.750000
vt 0.258264 0.750000
vt 0.241736 0.750000
vt 0.244835 0.500000
vt 0.241736 0.500000
vt 0.375000 0.093750
vt 0.619160 0.500000
vt 0.619160 0.250000
vt 0.375000 0.593750
vt 0.619160 0.750000
vt 0.125000 0.750000
vt 0.125000 0.500000
vt 0.625000 0.145833
vt 0.625000 0.000000
vt 0.625000 0.104167
vt 0.408333 0.104167
vt 0.625000 0.645833
vt 0.625000 0.604167
vt 0.408333 0.604167
vt 0.625000 1.000000
vt 0.828125 0.645833
vt 0.875000 0.645833
vt 0.671875 0.645833
vt 0.671875 0.708333
vt 0.671875 0.604167
vt 0.875000 0.604167
vt 0.828125 0.604167
vt 0.828125 0.541667
vt 0.591667 0.380165
vt 0.375000 0.369835
vt 0.591667 0.883264
vt 0.375000 0.866736
vt 0.255165 0.500000
vt 0.244835 0.750000
vt 0.619160 0.093750
vt 0.619160 0.000000
vt 0.619160 0.156250
vt 0.375000 0.156250
vt 0.619160 0.593750
vt 0.619160 0.656250
vt 0.375000 0.656250
vt 0.619160 1.000000
s 0
usemtl b
f 7/7/3 36/5/3 10/5/3
f 1/9/4 35/7/4 7/7/4
f 10/5/2 34/2/2 4/2/2
f 4/2/1 33/3/1 1/3/1
f 7/7/3 35/7/3 36/5/3
f 1/9/4 33/9/4 35/7/4
f 10/5/2 36/5/2 34/2/2
f 4/2/1 34/2/1 33/3/1
usemtl white
f 16/1/1 4/2/1 1/3/1
f 6/4/2 10/5/2 4/2/2
f 19/6/3 7/7/3 10/5/3
f 9/8/4 1/9/4 7/7/4
f 3/10/5 9/8/5 21/11/5
f 12/12/5 6/13/5 25/14/5
f 18/15/4 30/16/4 20/17/4
f 16/18/4 26/19/4 13/20/4
f 15/21/2 22/22/2 31/23/2
f 17/24/2 32/25/2 24/26/2
f 20/27/5 32/28/5 19/29/5
f 15/30/5 29/31/5 16/32/5
f 2/3/5 5/2/5 31/33/5
f 5/2/4 25/34/4 28/35/4
f 11/5/5 8/7/5 30/36/5
f 2/9/2 23/37/2 8/7/2
f 2/38/5 11/5/5 5/39/5
f 35/7/3 40/5/3 36/5/3
f 40/5/6 37/38/6 38/39/6
f 33/9/4 39/7/4 35/7/4
f 36/5/2 38/2/2 34/2/2
f 34/2/1 37/3/1 33/3/1
f 16/1/1 13/40/1 6/4/1
f 1/3/1 3/41/1 14/42/1
f 1/3/1 14/42/1 15/43/1
f 16/1/1 6/4/1 4/2/1
f 1/3/1 15/43/1 16/1/1
f 6/4/2 12/12/2 10/5/2
f 19/6/3 17/44/3 9/8/3
f 10/5/3 12/12/3 18/45/3
f 10/5/3 18/45/3 20/46/3
f 19/6/3 9/8/3 7/7/3
f 10/5/3 20/46/3 19/6/3
f 9/8/4 3/47/4 1/9/4
f 22/48/5 14/49/5 3/10/5
f 9/8/5 17/44/5 24/50/5
f 9/8/5 24/50/5 23/51/5
f 21/11/5 22/48/5 3/10/5
f 9/8/5 23/51/5 21/11/5
f 25/14/5 27/52/5 18/45/5
f 6/13/5 13/53/5 26/54/5
f 6/13/5 26/54/5 28/55/5
f 25/14/5 18/45/5 12/12/5
f 6/13/5 28/55/5 25/14/5
f 18/15/4 27/56/4 30/16/4
f 16/18/4 29/57/4 26/19/4
f 15/21/2 14/58/2 22/22/2
f 17/24/2 19/59/2 32/25/2
f 20/27/5 30/60/5 32/28/5
f 15/30/5 31/61/5 29/31/5
f 22/62/3 21/63/3 2/3/3
f 5/2/3 28/35/3 26/64/3
f 5/2/3 26/64/3 29/65/3
f 31/33/3 22/62/3 2/3/3
f 5/2/1 29/65/1 31/33/1
f 5/2/4 11/5/4 25/34/4
f 27/66/1 25/34/1 11/5/1
f 8/7/1 23/37/1 24/67/1
f 8/7/1 24/67/1 32/68/1
f 30/36/1 27/66/1 11/5/1
f 8/7/3 32/68/3 30/36/3
f 2/9/2 21/69/2 23/37/2
f 2/38/5 8/7/5 11/5/5
f 35/7/3 39/7/3 40/5/3
f 40/5/6 39/7/6 37/38/6
f 33/9/4 37/9/4 39/7/4
f 36/5/2 40/5/2 38/2/2
f 34/2/1 38/2/1 37/3/1
o d2
v -0.250000 0.200000 0.100000
v 0.197573 0.200000 0.030000
v -0.250000 1.531094 0.100000
v -0.250000 0.200000 -0.100000
v 0.197573 0.200000 -0.030000
v -0.197573 0.200000 0.030000
v -0.250000 1.531094 -0.100000
v 0.250000 0.200000 0.100000
v -0.197573 0.200000 -0.030000
v 0.250000 1.531094 0.100000
v 0.250000 0.200000 -0.100000
v 0.250000 1.531094 -0.100000
v 0.250000 1.531094 0.030000
v 0.250000 1.531094 -0.030000
v 0.250000 0.200000 0.030000
v 0.250000 0.200000 -0.030000
v 0.197573 1.531094 0.030000
v 0.197573 1.531094 -0.030000
v -0.250000 1.531094 -0.030000
v -0.250000 1.531094 0.030000
v -0.250000 0.200000 0.030000
v -0.250000 0.200000 -0.030000
v -0.197573 1.531094 -0.030000
v -0.197573 1.531094 0.030000
vn -1.0000 -0.0000 -0.0000
vn -0.0000 -0.0000 -1.0000
vn 1.0000 -0.0000 -0.0000
vn -0.0000 -0.0000 1.0000
vn -0.0000 -1.0000 -0.0000
vn -0.0000 1.0000 -0.0000
vt 0.375000 0.250000
vt 0.625000 0.162500
vt 0.625000 0.250000
vt 0.625000 0.000000
vt 0.375000 0.087500
vt 0.375000 0.000000
vt 0.375000 0.500000
vt 0.375000 0.750000
vt 0.625000 0.662500
vt 0.625000 0.750000
vt 0.625000 0.587500
vt 0.375000 0.587500
vt 0.375000 1.000000
vt 0.347656 0.587500
vt 0.152344 0.662500
vt 0.652344 0.587500
vt 0.875000 0.500000
vt 0.847656 0.587500
vt 0.606056 0.250000
vt 0.606056 0.000000
vt 0.606056 0.477870
vt 0.606056 0.772130
vt 0.375000 0.772130
vt 0.606056 0.272130
vt 0.375000 0.272130
vt 0.606056 0.500000
vt 0.375000 0.977870
vt 0.606056 0.750000
vt 0.375000 0.162500
vt 0.625000 0.087500
vt 0.625000 0.500000
vt 0.375000 0.662500
vt 0.625000 1.000000
vt 0.125000 0.587500
vt 0.125000 0.500000
vt 0.347656 0.662500
vt 0.125000 0.750000
vt 0.125000 0.662500
vt 0.152344 0.587500
vt 0.847656 0.662500
vt 0.875000 0.662500
vt 0.875000 0.750000
vt 0.652344 0.662500
vt 0.875000 0.587500
vt 0.375000 0.477870
vt 0.606056 1.000000
vt 0.606056 0.977870
s 0
usemtl white
f 44/70/7 59/71/7 47/72/7
f 43/73/7 61/74/7 41/75/7
f 47/72/8 51/76/8 44/70/8
f 48/77/9 53/78/9 50/79/9
f 51/76/9 54/80/9 56/81/9
f 50/79/10 41/82/10 48/77/10
f 51/76/11 45/83/11 46/84/11
f 58/85/12 47/86/12 63/87/12
f 42/75/9 58/88/9 57/89/9
f 45/70/10 54/90/10 58/88/10
f 42/82/8 53/91/8 55/92/8
f 49/76/10 59/93/10 62/94/10
f 46/77/7 63/95/7 49/76/7
f 61/96/8 64/97/8 46/77/8
f 44/70/7 62/98/7 59/71/7
f 43/73/7 60/99/7 61/74/7
f 47/72/8 52/100/8 51/76/8
f 48/77/9 55/101/9 53/78/9
f 51/76/9 52/100/9 54/80/9
f 50/79/10 43/102/10 41/82/10
f 62/103/11 44/104/11 51/76/11
f 51/76/11 56/81/11 45/83/11
f 42/105/11 55/101/11 48/77/11
f 42/105/11 48/77/11 41/106/11
f 41/106/11 61/107/11 46/84/11
f 49/108/11 62/103/11 51/76/11
f 42/105/11 41/106/11 46/84/11
f 46/84/11 49/108/11 51/76/11
f 45/83/11 42/105/11 46/84/11
f 64/109/12 60/110/12 43/111/12
f 43/111/12 50/79/12 53/78/12
f 43/111/12 53/78/12 57/112/12
f 64/109/12 43/111/12 57/112/12
f 58/85/12 54/80/12 52/100/12
f 64/109/12 57/112/12 58/85/12
f 47/86/12 59/113/12 63/87/12
f 63/87/12 64/109/12 58/85/12
f 58/85/12 52/100/12 47/86/12
f 42/75/9 45/70/9 58/88/9
f 45/70/10 56/114/10 54/90/10
f 42/82/8 57/115/8 53/91/8
f 49/76/10 63/95/10 59/93/10
f 46/77/7 64/97/7 63/95/7
f 61/96/8 60/116/8 64/97/8
o m
v -0.350000 1.531094 0.125000
v -0.350000 1.531094 -0.125000
v 0.350000 1.531094 0.125000
v 0.350000 1.531094 -0.125000
v -0.350000 1.581094 0.125000
v -0.350000 1.581094 -0.125000
v 0.350000 1.581094 -0.125000
v 0.350000 1.581094 0.125000
v -0.280000 1.651094 0.100000
v -0.280000 1.651094 -0.100000
v 0.280000 1.651094 -0.100000
v 0.280000 1.651094 0.100000
v -0.200000 0.200000 0.050000
v -0.200000 1.531094 0.050000
v -0.200000 0.200000 -0.050000
v -0.200000 1.531094 -0.050000
v 0.200000 0.200000 0.050000
v 0.200000 1.531094 0.050000
v 0.200000 0.200000 -0.050000
v 0.200000 1.531094 -0.050000
v -0.200000 0.200000 0.008919
v -0.200000 0.200000 -0.008919
v -0.200000 1.531093 -0.008919
v -0.200000 1.531093 0.008919
v 0.200000 0.200000 -0.008919
v 0.200000 0.200000 0.008919
v 0.200000 1.531093 0.008919
v 0.200000 1.531093 -0.008919
vn -0.0000 -1.0000 -0.0000
vn -0.0000 0.3363 0.9417
vn -0.0000 -0.0000 -1.0000
vn 1.0000 -0.0000 -0.0000
vn -1.0000 -0.0000 -0.0000
vn -0.0000 -0.0000 1.0000
vn -0.0000 1.0000 -0.0000
vn -0.0000 0.3363 -0.9417
vn 0.7071 0.7071 -0.0000
vn -0.7071 0.7071 -0.0000
vt 0.625000 0.750000
vt 0.875000 0.500000
vt 0.625000 0.500000
vt 0.875000 0.750000
vt 0.375000 0.600928
vt 0.375000 0.500000
vt 0.625000 0.250000
vt 0.375000 0.250000
vt 0.375000 1.000000
vt 0.375000 0.750000
vt 0.625000 0.149072
vt 0.375000 0.149072
vt 0.375000 0.649072
vt 0.125000 0.750000
vt 0.125000 0.649072
vt 0.625000 0.649072
vt 0.375000 0.649072
vt 0.125000 0.600928
vt 0.125000 0.500000
vt 0.625000 0.600928
vt 0.625000 0.100928
vt 0.625000 0.000000
vt 0.375000 0.100928
vt 0.375000 0.000000
vt 0.625000 1.000000
s 0
usemtl c
f 67/117/13 66/118/13 68/119/13
f 72/117/14 73/120/14 69/120/14
f 66/118/15 71/119/15 68/119/15
f 68/119/16 72/117/16 67/117/16
f 65/120/17 70/118/17 66/118/17
f 67/117/18 69/120/18 65/120/18
f 74/118/19 76/117/19 75/119/19
f 70/118/20 75/119/20 71/119/20
f 71/119/21 76/117/21 72/117/21
f 69/120/22 74/118/22 70/118/22
f 67/117/13 65/120/13 66/118/13
f 72/117/14 76/117/14 73/120/14
f 66/118/15 70/118/15 71/119/15
f 68/119/16 71/119/16 72/117/16
f 65/120/17 69/120/17 70/118/17
f 67/117/18 72/117/18 69/120/18
f 74/118/19 73/120/19 76/117/19
f 70/118/20 74/118/20 75/119/20
f 71/119/21 75/119/21 76/117/21
f 69/120/22 73/120/22 74/118/22
usemtl white
f 84/119/16 89/121/16 83/122/16
f 80/123/15 83/122/15 79/124/15
f 82/117/18 77/125/18 81/126/18
f 87/127/17 79/124/17 86/128/17
f 90/129/13 77/130/13 85/131/13
f 91/132/16 81/126/16 90/133/16
f 83/122/13 86/134/13 79/135/13
f 78/138/17 85/139/17 77/140/17
f 84/119/16 92/136/16 89/121/16
f 80/123/15 84/119/15 83/122/15
f 82/117/18 78/141/18 77/125/18
f 87/127/17 80/123/17 79/124/17
f 90/129/13 81/126/13 77/130/13
f 91/132/16 82/117/16 81/126/16
f 83/122/13 89/121/13 86/134/13
f 78/138/17 88/137/17 85/139/17
usemtl d
f 85/131/13 89/121/13 90/129/13
f 90/133/16 92/136/16 91/132/16
f 86/128/17 88/137/17 87/127/17
f 85/131/13 86/134/13 89/121/13
f 90/133/16 89/121/16 92/136/16
f 86/128/17 85/139/17 88/137/17
